<?xml version="1.0" encoding="UTF-8" standalone="no"?>
<!-- Created with Inkscape (http://www.inkscape.org/) -->

<svg
   version="1.1"
   id="svg25"
   xml:space="preserve"
   width="1120"
   height="800"
   viewBox="0 0 1120 800"
   sodipodi:docname="start.svg"
   inkscape:version="1.1.2 (0a00cf5339, 2022-02-04)"
   xmlns:inkscape="http://www.inkscape.org/namespaces/inkscape"
   xmlns:sodipodi="http://sodipodi.sourceforge.net/DTD/sodipodi-0.dtd"
   xmlns="http://www.w3.org/2000/svg"
   xmlns:svg="http://www.w3.org/2000/svg"><defs
     id="defs29"><clipPath
       clipPathUnits="userSpaceOnUse"
       id="clipPath703"><g
         inkscape:label="Clip"
         id="use705"><path
           d="m 8221.5,2184.71 h -8043 v 10.08 h 8043 v -10.08"
           style="fill:#e5e5e3;fill-opacity:1;fill-rule:nonzero;stroke:none"
           id="path726" /></g></clipPath></defs><sodipodi:namedview
     id="namedview27"
     pagecolor="#ffffff"
     bordercolor="#666666"
     borderopacity="1.0"
     inkscape:pageshadow="2"
     inkscape:pageopacity="0.0"
     inkscape:pagecheckerboard="0"
     showgrid="false"
     inkscape:lockguides="false"
     inkscape:zoom="0.61875"
     inkscape:cx="561.61616"
     inkscape:cy="461.41414"
     inkscape:window-width="1366"
     inkscape:window-height="704"
     inkscape:window-x="0"
     inkscape:window-y="0"
     inkscape:window-maximized="1"
     inkscape:current-layer="g33" /><g
     id="g31"
     inkscape:groupmode="layer"
     inkscape:label="ink_ext_XXXXXX"
     transform="matrix(1.3333333,0,0,-1.3333333,0,800)"><g
       id="g33"
       transform="scale(0.1)"><path
         d="m 3637.57,3018.56 c -98.16,149.78 -161.52,326.23 -164.1,503.51 -2.05,141.42 150.63,225.35 249.34,304.79 100.48,80.88 202.47,159.88 306.22,236.52 428.44,316.55 889.25,594.2 1386.97,787.4 268.71,104.31 554.19,198.23 845.94,186.74 24.56,-0.97 27.66,37.08 3,38.13 -262.4,11.15 -516.41,-61.77 -760.95,-149.92 -276.54,-99.68 -542.88,-226.33 -798.19,-371.76 -250.66,-142.79 -490.93,-303.48 -722.37,-475.55 -116.84,-86.87 -231.49,-176.69 -344.24,-268.8 -88.52,-72.32 -198.36,-139.37 -204.68,-264.55 -13.55,-268.31 133.87,-562.05 334.48,-729.29 8.38,-6.98 19.41,0.63 21.44,9.55 -61.07,56.13 -115.28,118.56 -152.86,193.23"
         style="fill:none;fill-opacity:1;fill-rule:nonzero;stroke:#000000;stroke-opacity:1;stroke-width:10.00000023;stroke-miterlimit:4;stroke-dasharray:none"
         id="path73" /><path
         d="m 4622.73,2657.97 c 108.61,96.95 215.26,196.12 319.35,297.92 206.18,201.66 402.49,413.83 582.75,639.06 183.59,229.4 350.37,472.64 492.1,730.17 125.33,227.72 237.11,467.2 267.16,728.11 2.83,24.53 -35.24,27.41 -38.13,3 -34.32,-289.95 -171.75,-557.22 -316.83,-806.29 -268.72,-461.35 -615.06,-873.02 -994.76,-1246.66 -91.94,-90.46 -185.92,-178.83 -281.53,-265.43 -93.91,-85.04 -200.7,-222.72 -340.05,-198.55 -178.73,30.99 -346.52,124.79 -480.65,249.38 -60.72,51.23 -117.32,106.89 -161.07,172.32 -7.91,-2.34 -14.56,-11.02 -9.62,-19.3 133.78,-224.3 400.83,-415.88 667.95,-444.48 124.64,-13.35 208.04,84.64 293.33,160.75"
         style="fill:none;fill-opacity:1;fill-rule:nonzero;stroke:#000000;stroke-opacity:1;stroke-width:10.00000023;stroke-miterlimit:4;stroke-dasharray:none"
         id="path75" /><path
         d="m 3967.53,2669.43 c -173.64,135.22 -312.7,309.01 -428.51,494.25 -1.65,2.65 -6.5,1.81 -5.68,-1.81 24.7,-108.12 96.91,-205.13 169.67,-286.26 73.91,-82.4 155.88,-172.54 256.79,-221.59 9.3,-4.52 15.05,9.7 7.73,15.41"
         style="fill:none;fill-opacity:1;fill-rule:nonzero;stroke:#000000;stroke-opacity:1;stroke-width:10.00000023;stroke-miterlimit:4;stroke-dasharray:none"
         id="path77" /><path
         d="m 5797.36,4012.34 c -147.99,97.91 -284.67,204.66 -400.5,340.19 -56.7,66.35 -107.91,136.86 -153.28,211.41 -40.34,66.28 -55.36,121.78 -63.93,198.12 -0.07,0.57 -0.88,0.88 -1.29,0.47 -38.63,-39.08 -22.18,-98.39 -3.59,-144.04 34.25,-84.1 91.7,-163.16 146.7,-234.82 122.37,-159.42 279.47,-303.61 457.27,-398.82 18.39,-9.85 36.84,15.43 18.62,27.49"
         style="fill:none;fill-opacity:1;fill-rule:nonzero;stroke:#000000;stroke-opacity:1;stroke-width:10.00000023;stroke-miterlimit:4;stroke-dasharray:none"
         id="path79" /><path
         d="m 4611.36,3486.47 c -172.27,100.56 -238.32,344.15 -131.16,515.15 86.66,138.27 298.28,227.08 460.69,181.86 0.96,-1.27 2.2,-2.44 4.07,-3.2 56.45,-22.91 110.24,-67.58 155.12,-119.6 2.07,-3.59 4.27,-7 6.24,-10.75 0.84,-1.6 2.53,-1.81 3.81,-1.23 33.01,-40.27 60.64,-84.14 79.96,-125.47 47.33,-101.28 33.82,-216.7 -25.55,-309.89 -114.74,-180.1 -371.23,-233.07 -553.18,-126.87 z m 626.99,188.33 c 67.9,197.41 -67.96,444.79 -262.77,514.87 -105.25,53.8 -238.17,44.68 -354.94,-14.82 -177,-90.2 -268.44,-280.03 -216.64,-473.54 104.8,-391.47 701.66,-412.31 834.35,-26.51"
         style="fill:none;fill-opacity:1;fill-rule:nonzero;stroke:#000000;stroke-opacity:1;stroke-width:10.00000023;stroke-miterlimit:4;stroke-dasharray:none"
         id="path81" /><path
         d="m 3607.9,2577.81 c -123.18,115.65 -224.55,253.6 -287.36,411.12 -29.98,75.17 -64.52,170.4 -64.71,252.76 -0.16,65.12 29.73,72.66 81.65,91.97 37.97,14.11 76.08,27.9 113.54,43.31 1.56,-6.1 2.86,-12.25 4.63,-18.3 1.96,-7.19 14.5,-10.56 16.46,-1.29 3.14,14.78 5.53,27.03 8.14,41.96 1.77,10.18 -10.21,21.66 -20.41,18.49 -54.41,-16.94 -107.76,-37.25 -161.1,-57.27 -29.03,-10.89 -63.86,-20.28 -78.57,-50.72 -13.63,-28.23 -4.17,-68.31 -0.09,-97.14 7.78,-55.08 20.29,-109.31 36.83,-162.4 60.26,-193.47 174.1,-366.4 333.87,-491.64 11.33,-8.89 27.85,9.08 17.12,19.15"
         style="fill:none;fill-opacity:1;fill-rule:nonzero;stroke:#000000;stroke-opacity:1;stroke-width:10.00000023;stroke-miterlimit:4;stroke-dasharray:none"
         id="path83" /><path
         d="m 3398.6,2822.88 c 94.95,-139.76 215.33,-261.46 361.09,-348.16 69.55,-41.37 158.2,-90.39 239.52,-103.47 64.29,-10.34 76.41,17.99 103.6,66.25 19.88,35.3 39.47,70.78 60.55,105.37 -5.77,2.49 -11.65,4.74 -17.35,7.44 -6.79,3.05 -8.16,15.97 1.3,16.46 15.09,0.78 27.57,1.23 42.73,1.47 10.32,0.15 19.78,-13.48 15.06,-23.06 -25.24,-51.09 -53.65,-100.61 -81.77,-150.15 -15.31,-26.96 -30.04,-59.9 -62.4,-69.67 -30.01,-9.05 -68.12,6.58 -95.96,15.11 -53.18,16.31 -104.79,37.16 -154.63,61.81 -181.66,89.79 -334.64,229.3 -433.34,406.7 -7,12.57 13.33,26.07 21.6,13.9"
         style="fill:none;fill-opacity:1;fill-rule:nonzero;stroke:#000000;stroke-opacity:1;stroke-width:10.00000023;stroke-miterlimit:4;stroke-dasharray:none"
         id="path85" /><path
         d="m 4659.73,4540.86 c -91.33,37.03 -198.03,98.13 -297.99,104.48 -94.95,6.03 -203.81,-42.99 -292.43,-72.94 -228.18,-77.11 -447.37,-180.66 -652.06,-307.61 -95.17,-59.03 -187.35,-122.86 -275.8,-191.56 -51.52,-40.01 -102.36,-81.32 -150.86,-124.98 -19.88,-17.9 -49.63,-39.3 -52.72,-68.54 -8.49,-80.13 138.86,-95.59 190.35,-107.4 127.39,-29.2 254.96,-57.64 382.45,-86.47 24.51,-5.54 37.82,31.71 12.99,37.32 -101.99,23.06 -203.97,46.12 -305.96,69.18 -46.26,10.46 -93,19.82 -138.81,32.17 -15.91,4.3 -47.7,7.88 -60.93,19.23 -54.1,46.38 -10.88,66.61 16.71,90.6 155.82,135.45 325.12,255.24 504.64,357.17 170.41,96.76 349.78,177.67 535.18,241.13 87.15,29.83 206.25,84.7 300.39,70.65 84.27,-12.57 169.62,-57.49 250.35,-89.39 -13.31,-20.83 -31.5,-49.84 -27.01,-45.14 -2.23,-2.33 1.03,-6.2 3.29,-3.84 -7.56,-7.91 59.78,40.52 64.25,43.87 12.04,9.04 6.32,27.06 -6.03,32.07"
         style="fill:none;fill-opacity:1;fill-rule:nonzero;stroke:#000000;stroke-opacity:1;stroke-width:10.00000023;stroke-miterlimit:4;stroke-dasharray:none"
         id="path87" /><path
         d="m 5497.76,3559.59 c 22.27,-96 65.92,-210.94 56.55,-310.67 -8.91,-94.72 -74.37,-194.57 -117.8,-277.4 -111.88,-213.31 -248.46,-413.6 -405.87,-595.88 -73.2,-84.77 -150.67,-165.82 -232.37,-242.43 -47.58,-44.62 -96.33,-88.38 -147.06,-129.45 -20.79,-16.82 -46.57,-42.86 -75.93,-41.34 -80.47,4.16 -72.69,152.1 -76.28,204.81 -8.92,130.39 -17.04,260.85 -25.56,391.27 -1.64,25.08 37.24,32.4 38.9,6.99 6.81,-104.33 13.62,-208.68 20.44,-313.02 3.09,-47.32 5.02,-94.96 10.06,-142.13 1.74,-16.39 0.31,-48.34 9.44,-63.19 37.34,-60.68 64.1,-21.17 92.11,2.33 158.15,132.69 302.97,281.17 431.75,442.53 122.22,153.16 230.21,317.65 321.91,490.83 43.11,81.42 115.93,190.45 116.79,285.64 0.77,85.2 -30.25,176.52 -49.1,261.25 -22.67,-9.88 -54.16,-23.31 -48.82,-19.61 -2.65,-1.83 -5.96,2 -3.28,3.85 -9.01,-6.22 49.38,52.71 53.38,56.59 10.82,10.48 27.72,2.02 30.74,-10.97"
         style="fill:none;fill-opacity:1;fill-rule:nonzero;stroke:#000000;stroke-opacity:1;stroke-width:10.00000023;stroke-miterlimit:4;stroke-dasharray:none"
         id="path89" /><path
         d="m 4878.47,3528.35 c -99.11,-20.95 -187.02,-3.57 -257.9,71.78 -61.41,65.28 -105.41,144.53 -94.72,236.6 15.42,132.71 112.61,208.2 226.89,241.11 137.92,34.51 299.22,-29.98 349.34,-169.79 61.63,-171.89 -51.09,-343.22 -223.61,-379.7 z m 177.34,58.88 c 98.17,95.01 119.98,257.51 53.28,376.19 -52.81,93.96 -150.41,145.57 -251.31,148.75 -128.61,9.03 -259.64,-48.72 -324.37,-164.76 -80.07,-143.58 -19.85,-299.75 100.18,-400.4 117.5,-98.51 317.59,-61.05 422.22,40.22"
         style="fill:none;fill-opacity:1;fill-rule:nonzero;stroke:#000000;stroke-opacity:1;stroke-width:10.00000023;stroke-miterlimit:4;stroke-dasharray:none"
         id="path91" /><path
         d="m 5117.04,3882.7 c -81.25,13.88 -173.49,9.46 -255.56,3.46 -3.69,-0.27 -2.77,-5.36 0.29,-5.95 81.4,-15.76 173.62,-29.43 256.53,-22.87 15.47,1.22 12.04,23.09 -1.26,25.36"
         style="fill:none;fill-opacity:1;fill-rule:nonzero;stroke:#000000;stroke-opacity:1;stroke-width:10.00000023;stroke-miterlimit:4;stroke-dasharray:none"
         id="path93" /><path
         d="m 5113.57,3782.96 c -52.99,-3.75 -104.53,15.58 -157.79,8.92 -3.98,-0.5 -4.61,-6.89 -0.62,-7.93 29.58,-7.7 59.63,-13.62 89.23,-21.43 24.29,-6.41 49.11,-11.3 74.27,-7.88 18.71,2.55 12.95,29.6 -5.09,28.32"
         style="fill:none;fill-opacity:1;fill-rule:nonzero;stroke:#000000;stroke-opacity:1;stroke-width:10.00000023;stroke-miterlimit:4;stroke-dasharray:none"
         id="path95" /><path
         d="m 4824.88,3789.28 c -0.66,0.77 -1.86,-0.25 -1.21,-1.03 0.67,-0.77 1.87,0.25 1.21,1.03"
         style="fill:none;fill-opacity:1;fill-rule:nonzero;stroke:#000000;stroke-opacity:1;stroke-width:10.00000023;stroke-miterlimit:4;stroke-dasharray:none"
         id="path97" /><path
         d="m 4822.41,3785.11 c -99.95,15.92 -200.12,38.56 -300.7,49.44 -17.81,1.93 -24.59,-26.73 -6.56,-31.3 98.92,-25.07 204.98,-28.65 306.53,-27.28 5.89,0.08 6.59,8.21 0.73,9.14"
         style="fill:none;fill-opacity:1;fill-rule:nonzero;stroke:#000000;stroke-opacity:1;stroke-width:10.00000023;stroke-miterlimit:4;stroke-dasharray:none"
         id="path99" /><path
         d="m 4645.36,3897.39 c -10.81,12.68 -34.99,15.02 -50.46,18.28 -20.37,4.28 -40.54,6.9 -61.35,5.94 -19.47,-0.89 -18.36,-28.56 1.35,-26.92 20.52,1.7 41.08,3.69 61.7,3.23 15.08,-0.34 34.3,-6.4 48.61,-1.27 0.29,0.11 0.34,0.52 0.15,0.74"
         style="fill:none;fill-opacity:1;fill-rule:nonzero;stroke:#000000;stroke-opacity:1;stroke-width:10.00000023;stroke-miterlimit:4;stroke-dasharray:none"
         id="path101" /><path
         d="m 6244.32,5008.35 c -51.81,20.12 -106.13,36.72 -160.91,43.28 -4.74,0.57 -5.57,-6.22 -1.59,-7.65 -0.01,-0.04 -0.03,-0.07 -0.04,-0.1 55.17,-15.2 108.9,-30.29 161.49,-51.7 0.28,5.4 0.6,10.79 1.05,16.17"
         style="fill:none;fill-opacity:1;fill-rule:nonzero;stroke:#000000;stroke-opacity:1;stroke-width:10.00000023;stroke-miterlimit:4;stroke-dasharray:none"
         id="path103" /><path
         d="m 6243.07,4979.63 c -71.65,27.58 -144.92,49.56 -219.67,67.08 -6.07,-1.89 -12.16,-3.69 -18.26,-5.42 0.54,-1.21 1.64,-2.18 3.42,-2.59 80.76,-18.44 158.9,-44.58 235.2,-76.67 -0.5,5.85 -0.72,11.71 -0.69,17.6"
         style="fill:none;fill-opacity:1;fill-rule:nonzero;stroke:#000000;stroke-opacity:1;stroke-width:10.00000023;stroke-miterlimit:4;stroke-dasharray:none"
         id="path105" /><path
         d="m 6209.33,4965.76 c -68.44,32.32 -141.61,55.15 -215.38,72.35 -5.42,-1.45 -10.86,-2.75 -16.3,-4.1 78.35,-20.74 152.47,-49.57 226.9,-81.98 8.66,-3.77 13.12,9.8 4.78,13.73"
         style="fill:none;fill-opacity:1;fill-rule:nonzero;stroke:#000000;stroke-opacity:1;stroke-width:10.00000023;stroke-miterlimit:4;stroke-dasharray:none"
         id="path107" /><path
         d="m 6198.93,4936.14 c -80.82,36.66 -163.74,67.02 -248.82,91.36 -7.61,-1.68 -15.2,-3.39 -22.85,-4.96 91.49,-26.54 180.26,-60.17 266.58,-101.03 8.95,-4.24 14.17,10.51 5.09,14.63"
         style="fill:none;fill-opacity:1;fill-rule:nonzero;stroke:#000000;stroke-opacity:1;stroke-width:10.00000023;stroke-miterlimit:4;stroke-dasharray:none"
         id="path109" /><path
         d="m 6202.16,4892.47 c -115.9,45.58 -234.07,83.77 -354.51,114.74 -8.47,-1.59 -16.93,-3.2 -25.4,-4.86 127.53,-33.55 252.39,-75.21 374.61,-125.11 9.59,-3.91 14.98,11.42 5.3,15.23"
         style="fill:none;fill-opacity:1;fill-rule:nonzero;stroke:#000000;stroke-opacity:1;stroke-width:10.00000023;stroke-miterlimit:4;stroke-dasharray:none"
         id="path111" /><path
         d="m 6211.98,4853.6 c -140.39,58.94 -284.81,105.38 -433.01,139.66 -3.5,-0.77 -6.96,-1.6 -10.46,-2.38 150.37,-38.25 296.46,-89.11 438.06,-152.81 9.58,-4.31 15.19,11.42 5.41,15.53"
         style="fill:none;fill-opacity:1;fill-rule:nonzero;stroke:#000000;stroke-opacity:1;stroke-width:10.00000023;stroke-miterlimit:4;stroke-dasharray:none"
         id="path113" /><path
         d="m 6187.78,4837.88 c -152.68,58.86 -310.29,103.72 -470.26,137.72 -5.03,-2.94 -10.75,-5.27 -17.24,-6.82 164.46,-36.97 324.32,-87.07 481.68,-147.62 10.63,-4.09 16.45,12.62 5.82,16.72"
         style="fill:none;fill-opacity:1;fill-rule:nonzero;stroke:#000000;stroke-opacity:1;stroke-width:10.00000023;stroke-miterlimit:4;stroke-dasharray:none"
         id="path115" /><path
         d="m 6172.83,4812.9 c -168.32,67.83 -342.85,116.12 -521.6,145.94 -6.15,-1.71 -12.23,-3.62 -18.27,-5.68 183.83,-31.64 362.1,-84.25 533.95,-157.28 10.63,-4.51 16.71,12.68 5.92,17.02"
         style="fill:none;fill-opacity:1;fill-rule:nonzero;stroke:#000000;stroke-opacity:1;stroke-width:10.00000023;stroke-miterlimit:4;stroke-dasharray:none"
         id="path117" /><path
         d="m 6190.52,4756.63 c -197.16,72.83 -397.93,132.69 -602.72,178.27 -5.94,-2.73 -11.85,-5.51 -17.73,-8.39 208.99,-47.65 414.44,-109.84 614.01,-188.39 11.7,-4.62 18.32,14.12 6.44,18.51"
         style="fill:none;fill-opacity:1;fill-rule:nonzero;stroke:#000000;stroke-opacity:1;stroke-width:10.00000023;stroke-miterlimit:4;stroke-dasharray:none"
         id="path119" /><path
         d="m 6113.96,4712.77 c -184.67,85.68 -382.41,154.71 -583.01,194.08 -5.48,-2.79 -10.95,-5.59 -16.44,-8.33 -1.57,-0.79 -3.19,-1.45 -4.76,-2.23 204.87,-54.34 402.52,-118.2 596.51,-205.61 13.77,-6.2 21.22,15.81 7.7,22.09"
         style="fill:none;fill-opacity:1;fill-rule:nonzero;stroke:#000000;stroke-opacity:1;stroke-width:10.00000023;stroke-miterlimit:4;stroke-dasharray:none"
         id="path121" /><path
         d="m 6145.68,4648.58 c -222.1,101.64 -454.67,175.56 -694.08,221.89 -5.32,-2.16 -10.59,-4.46 -15.94,-6.52 243.21,-49.64 478.82,-128.12 703.05,-235.38 12.2,-5.83 19.36,14.34 6.97,20.01"
         style="fill:none;fill-opacity:1;fill-rule:nonzero;stroke:#000000;stroke-opacity:1;stroke-width:10.00000023;stroke-miterlimit:4;stroke-dasharray:none"
         id="path123" /><path
         d="m 6126.54,4572.6 c 2.37,3.41 4.96,6.41 7.67,9.15 -0.75,2.46 -2.41,4.71 -5.31,6.07 -238.01,110.75 -492.99,201.82 -751.46,255.68 -5.69,-1.86 -11.38,-3.71 -17.11,-5.5 264.91,-60.07 509.75,-167.28 762.33,-268.1 0.66,-0.26 1.24,-0.22 1.85,-0.35 0.7,1 1.32,2.04 2.03,3.05"
         style="fill:none;fill-opacity:1;fill-rule:nonzero;stroke:#000000;stroke-opacity:1;stroke-width:10.00000023;stroke-miterlimit:4;stroke-dasharray:none"
         id="path125" /><path
         d="m 6114.53,4554.45 c -270.47,110.1 -547.22,208.52 -834.86,259.98 -5.82,-1.62 -11.64,-3.23 -17.46,-4.83 291.64,-52.22 567.38,-161.03 841.25,-272.63 3.6,5.87 7.3,11.69 11.07,17.48"
         style="fill:none;fill-opacity:1;fill-rule:nonzero;stroke:#000000;stroke-opacity:1;stroke-width:10.00000023;stroke-miterlimit:4;stroke-dasharray:none"
         id="path127" /><path
         d="m 6088.32,4511.36 c -296.18,119.7 -596.81,231.69 -914.69,273.32 -5.35,-1.58 -10.67,-3.19 -15.98,-4.81 320.26,-45.56 622.91,-163.06 920.28,-287.26 3.39,6.29 6.87,12.53 10.39,18.75"
         style="fill:none;fill-opacity:1;fill-rule:nonzero;stroke:#000000;stroke-opacity:1;stroke-width:10.00000023;stroke-miterlimit:4;stroke-dasharray:none"
         id="path129" /><path
         d="m 6062.86,4463.77 c -297.63,128.73 -603.88,242.04 -921.31,309.09 1.82,-4.87 3.7,-9.73 5.57,-14.59 313.43,-71.1 610.29,-190.11 904.94,-316.3 3.56,7.29 7.14,14.56 10.8,21.8"
         style="fill:none;fill-opacity:1;fill-rule:nonzero;stroke:#000000;stroke-opacity:1;stroke-width:10.00000023;stroke-miterlimit:4;stroke-dasharray:none"
         id="path131" /><path
         d="m 6039.77,4416.39 c -279.29,119.42 -569.14,224.82 -868.6,276.78 1.7,-5.15 3.36,-10.31 4.9,-15.52 296.79,-55.74 574.19,-169.95 853.85,-282.2 3.26,7 6.56,13.97 9.85,20.94"
         style="fill:none;fill-opacity:1;fill-rule:nonzero;stroke:#000000;stroke-opacity:1;stroke-width:10.00000023;stroke-miterlimit:4;stroke-dasharray:none"
         id="path133" /><path
         d="m 6030.87,4397.5 c -270.32,104.99 -548.5,197.1 -835.18,241.45 -9.68,1.5 -10.77,-13.58 -1.18,-15.13 286.91,-46.56 556.14,-146.71 826.99,-246.54 3.11,6.75 6.24,13.48 9.37,20.22"
         style="fill:none;fill-opacity:1;fill-rule:nonzero;stroke:#000000;stroke-opacity:1;stroke-width:10.00000023;stroke-miterlimit:4;stroke-dasharray:none"
         id="path135" /><path
         d="m 6005.06,4341.84 c 0,0.01 0.01,0.02 0.01,0.03 -259.21,107.14 -530.62,186.83 -804.81,245.97 1.3,-3 2.61,-6 4.17,-8.96 1.72,-3.3 3.53,-6.56 5.28,-9.84 268.78,-60.73 529.22,-145.32 786.11,-245.56 3.09,6.12 6.07,12.29 9.24,18.36"
         style="fill:none;fill-opacity:1;fill-rule:nonzero;stroke:#000000;stroke-opacity:1;stroke-width:10.00000023;stroke-miterlimit:4;stroke-dasharray:none"
         id="path137" /><path
         d="m 5988.44,4308.77 c -246.71,94.75 -502.24,168.22 -759.92,226.47 3.06,-5.27 6.18,-10.51 9.33,-15.73 252.71,-59.69 498.86,-137.71 742.34,-228.03 2.73,5.78 5.45,11.56 8.25,17.29"
         style="fill:none;fill-opacity:1;fill-rule:nonzero;stroke:#000000;stroke-opacity:1;stroke-width:10.00000023;stroke-miterlimit:4;stroke-dasharray:none"
         id="path139" /><path
         d="m 5961.13,4250.63 c -223.59,96.22 -459.54,168.14 -695.9,226.1 4.27,-6.27 8.6,-12.5 13.02,-18.67 229.59,-59.47 450.84,-137.82 671.49,-225.18 3.85,5.89 7.62,11.82 11.39,17.75"
         style="fill:none;fill-opacity:1;fill-rule:nonzero;stroke:#000000;stroke-opacity:1;stroke-width:10.00000023;stroke-miterlimit:4;stroke-dasharray:none"
         id="path141" /><path
         d="m 5936.36,4212.64 c 1.37,4.59 -0.04,10.09 -5.79,12.36 -203.19,80.35 -413.9,143.71 -625.5,197.82 4.86,-6.07 9.79,-12.07 14.82,-17.98 205.03,-55.95 404.91,-124.54 604.14,-198.65 3.7,-1.37 6.75,-0.44 9.02,1.47 1.11,1.65 2.21,3.33 3.31,4.98"
         style="fill:none;fill-opacity:1;fill-rule:nonzero;stroke:#000000;stroke-opacity:1;stroke-width:10.00000023;stroke-miterlimit:4;stroke-dasharray:none"
         id="path143" /><path
         d="m 5395.19,4325.46 c 160.59,-43.88 318.23,-96.07 475.25,-152.97 11.31,-4.09 17.35,13.32 6.14,17.62 -162.83,62.49 -330.9,112.48 -500.49,154.22 6.31,-6.35 12.69,-12.62 19.1,-18.87"
         style="fill:none;fill-opacity:1;fill-rule:nonzero;stroke:#000000;stroke-opacity:1;stroke-width:10.00000023;stroke-miterlimit:4;stroke-dasharray:none"
         id="path145" /><path
         d="m 5892.76,4148.37 c -147.46,51.14 -298.51,93.64 -450.16,131.84 8.18,-7.69 16.37,-15.37 24.54,-23.06 139.21,-38.42 276.95,-81.13 414.97,-124.49 3.54,5.25 7.09,10.48 10.65,15.71"
         style="fill:none;fill-opacity:1;fill-rule:nonzero;stroke:#000000;stroke-opacity:1;stroke-width:10.00000023;stroke-miterlimit:4;stroke-dasharray:none"
         id="path147" /><path
         d="m 5517.63,4208.87 c 110.62,-34.05 219.84,-71.71 329.38,-109.92 12.32,-4.29 18.82,14.46 6.66,19.11 -118.67,45.38 -240.74,83.04 -363.35,117.17 9.16,-8.73 18.28,-17.49 27.31,-26.36"
         style="fill:none;fill-opacity:1;fill-rule:nonzero;stroke:#000000;stroke-opacity:1;stroke-width:10.00000023;stroke-miterlimit:4;stroke-dasharray:none"
         id="path149" /><path
         d="m 5847.97,4080.64 c -93.26,30.15 -188,56.33 -282.87,81.32 6.92,-6.82 13.87,-13.61 20.86,-20.33 84.22,-25.06 168.04,-51.37 252.16,-76.9 3.25,5.32 6.51,10.64 9.85,15.91"
         style="fill:none;fill-opacity:1;fill-rule:nonzero;stroke:#000000;stroke-opacity:1;stroke-width:10.00000023;stroke-miterlimit:4;stroke-dasharray:none"
         id="path151" /><path
         d="m 5824.53,4040.39 c -66.43,24.25 -134.06,45.8 -201.6,66.86 10.47,-9.39 21.07,-18.64 31.97,-27.58 55.05,-18.12 109.59,-37.53 164.29,-56.89 0.86,5.78 2.77,11.68 5.34,17.61"
         style="fill:none;fill-opacity:1;fill-rule:nonzero;stroke:#000000;stroke-opacity:1;stroke-width:10.00000023;stroke-miterlimit:4;stroke-dasharray:none"
         id="path153" /><path
         d="m 3485.53,3321.58 c -32.02,11.19 -66.34,17.73 -99.88,22.3 -17.05,2.32 -55.75,14.17 -68.8,-0.86 -1.63,-1.87 -1.06,-5.11 0.38,-6.86 0.44,-0.53 0.87,-1.05 1.31,-1.58 1.13,-1.37 3.03,-2.02 4.76,-1.7 0.71,0.13 1.42,0.26 2.13,0.39 1.82,0.34 3.34,1.96 3.46,3.83 0,0.08 0.01,0.16 0.01,0.25 3.78,-1.1 7.86,-1.84 7.95,-1.86 6.96,-1.42 14.62,-1.5 21.71,-2.42 13.01,-1.66 25.96,-3.73 38.84,-6.22 28.05,-5.42 55,-13.87 82.41,-21.7 10.68,-3.04 16.38,12.7 5.72,16.43"
         style="fill:none;fill-opacity:1;fill-rule:nonzero;stroke:#000000;stroke-opacity:1;stroke-width:10.00000023;stroke-miterlimit:4;stroke-dasharray:none"
         id="path155" /><path
         d="m 3488.5,3283.25 c -80.73,25.09 -166.35,35.7 -250.49,40.45 -7.32,0.41 -8.23,-10.93 -0.9,-11.35 84.39,-4.75 164.61,-22.66 245.88,-44.92 10.29,-2.83 15.9,12.59 5.51,15.82"
         style="fill:none;fill-opacity:1;fill-rule:nonzero;stroke:#000000;stroke-opacity:1;stroke-width:10.00000023;stroke-miterlimit:4;stroke-dasharray:none"
         id="path157" /><path
         d="m 3494.54,3242.92 c -88.28,31.51 -185.02,44.51 -278.25,48.28 -5.08,0.2 -5.73,-7.55 -0.63,-7.88 94.71,-6.09 183.51,-27.28 274.31,-53.53 8.54,-2.47 13.08,10.1 4.57,13.13"
         style="fill:none;fill-opacity:1;fill-rule:nonzero;stroke:#000000;stroke-opacity:1;stroke-width:10.00000023;stroke-miterlimit:4;stroke-dasharray:none"
         id="path159" /><path
         d="m 3524.53,3191.37 c -83.21,47.5 -189.22,66.79 -283.8,74.59 -10.72,0.88 -12.03,-16.09 -1.31,-16.62 6.23,-2.36 12.45,-4.71 18.67,-7.07 2.29,-1.82 5.62,0.52 5.55,3.11 87.69,-15.09 167.26,-44.43 252.46,-70.83 9.8,-3.03 18.17,11.26 8.43,16.82"
         style="fill:none;fill-opacity:1;fill-rule:nonzero;stroke:#000000;stroke-opacity:1;stroke-width:10.00000023;stroke-miterlimit:4;stroke-dasharray:none"
         id="path161" /><path
         d="m 3540.29,3141.45 c -6.74,32.84 -81.53,34.99 -107.82,41.73 -62.33,16.01 -124.53,33.39 -187.58,46.37 -9.21,1.9 -10.9,-13.55 -2.83,-15.12 45.24,-14.69 91.4,-26.56 137.29,-39.04 15.05,-4.09 136.17,-27.22 138.23,-38.02 2.77,-14.62 25.69,-10.47 22.71,4.08"
         style="fill:none;fill-opacity:1;fill-rule:nonzero;stroke:#000000;stroke-opacity:1;stroke-width:10.00000023;stroke-miterlimit:4;stroke-dasharray:none"
         id="path163" /><path
         d="m 3543.26,3098.95 c -89.83,27.09 -183.84,52.84 -277.54,61.68 -5.39,0.51 -7.51,-8.15 -2,-9.51 91.6,-22.7 183.22,-41.31 273.3,-70.08 11.63,-3.71 17.95,14.38 6.24,17.91"
         style="fill:none;fill-opacity:1;fill-rule:nonzero;stroke:#000000;stroke-opacity:1;stroke-width:10.00000023;stroke-miterlimit:4;stroke-dasharray:none"
         id="path165" /><path
         d="m 3568.85,3051.58 c -95.8,33.49 -198.63,53.71 -299.31,65.17 -6.99,0.8 -7.52,-9.52 -0.84,-10.72 100.19,-18.02 196.24,-44.24 293.6,-73.26 12.22,-3.64 18.74,14.55 6.55,18.81"
         style="fill:none;fill-opacity:1;fill-rule:nonzero;stroke:#000000;stroke-opacity:1;stroke-width:10.00000023;stroke-miterlimit:4;stroke-dasharray:none"
         id="path167" /><path
         d="m 3608.32,3001.97 c 0.04,0.09 0.07,0.19 0.1,0.28 -112.04,35.73 -230.24,68.2 -346.77,85.22 -9.76,1.43 -14.58,-9.24 -11.81,-17.05 2.79,-7.9 4.18,-9.51 11.59,-13.43 6.51,-3.44 12.57,-0.61 15.29,4.07 111.31,-15.75 218.75,-50.44 329.14,-71.02 7.42,-1.38 8.55,9.12 2.46,11.93"
         style="fill:none;fill-opacity:1;fill-rule:nonzero;stroke:#000000;stroke-opacity:1;stroke-width:10.00000023;stroke-miterlimit:4;stroke-dasharray:none"
         id="path169" /><path
         d="m 3686.57,2937.15 c -123.38,35.52 -247.98,66.56 -372.85,96.41 -12.66,3.03 -19.27,-16.45 -6.65,-19.11 126.08,-26.53 251.63,-55.39 377.42,-83.28 3.87,-0.85 6.08,4.83 2.08,5.98"
         style="fill:none;fill-opacity:1;fill-rule:nonzero;stroke:#000000;stroke-opacity:1;stroke-width:10.00000023;stroke-miterlimit:4;stroke-dasharray:none"
         id="path171" /><path
         d="m 3718.72,2875.88 c -75.97,27.17 -155,46.91 -232.48,69.36 -62.1,17.99 -123.91,39.73 -188.36,47.29 -14.14,1.65 -15.98,-20.92 -1.74,-22.06 142.76,-11.49 281.45,-71.04 421.93,-97.65 1.8,-0.35 2.29,2.48 0.65,3.06"
         style="fill:none;fill-opacity:1;fill-rule:nonzero;stroke:#000000;stroke-opacity:1;stroke-width:10.00000023;stroke-miterlimit:4;stroke-dasharray:none"
         id="path173" /><path
         d="m 3756.91,2835.38 c -144.78,47.16 -296.81,82.1 -446.39,111.95 1.81,-8.17 3.92,-16.11 6.55,-23.77 146.22,-30.89 292.17,-64.74 438.74,-93.39 3.02,-0.6 3.95,4.29 1.1,5.21"
         style="fill:none;fill-opacity:1;fill-rule:nonzero;stroke:#000000;stroke-opacity:1;stroke-width:10.00000023;stroke-miterlimit:4;stroke-dasharray:none"
         id="path175" /><path
         d="m 3819.81,2792.43 c -154.99,37.56 -312.42,70.95 -470.33,93.61 -15.84,2.27 -17.39,-21.95 -1.93,-24.58 156.76,-26.61 313.24,-52.38 469.24,-83.44 8.19,-1.63 11.23,12.43 3.02,14.41"
         style="fill:none;fill-opacity:1;fill-rule:nonzero;stroke:#000000;stroke-opacity:1;stroke-width:10.00000023;stroke-miterlimit:4;stroke-dasharray:none"
         id="path177" /><path
         d="m 3859.51,2745.69 c -146.39,28.11 -293.91,50.98 -440.85,76.05 -15.17,2.59 -17.2,-21.67 -1.88,-23.94 147.13,-21.95 294.14,-46.18 441.71,-65.03 8.43,-1.09 9.02,11.37 1.02,12.92"
         style="fill:none;fill-opacity:1;fill-rule:nonzero;stroke:#000000;stroke-opacity:1;stroke-width:10.00000023;stroke-miterlimit:4;stroke-dasharray:none"
         id="path179" /><path
         d="m 3903.41,2715.55 c -148.08,-9.1 -290.4,36.33 -436.27,52.85 -15.96,1.81 -17.69,-22.6 -1.95,-24.73 17.27,-2.34 34.54,-4.67 51.81,-7.01 1.18,-0.16 2.24,0.02 3.26,0.27 128.41,-17.85 255.5,-47.79 385.94,-36.94 10.23,0.85 7.18,16.18 -2.79,15.56"
         style="fill:none;fill-opacity:1;fill-rule:nonzero;stroke:#000000;stroke-opacity:1;stroke-width:10.00000023;stroke-miterlimit:4;stroke-dasharray:none"
         id="path181" /><path
         d="m 4005.67,2655.62 c -156.88,16.94 -312.01,49.12 -468.73,65.47 -14.49,1.51 -15.39,-19.46 -1.74,-22.06 153.87,-29.37 313.37,-44.23 469.48,-56.01 8.14,-0.61 9.07,11.73 0.99,12.6"
         style="fill:none;fill-opacity:1;fill-rule:nonzero;stroke:#000000;stroke-opacity:1;stroke-width:10.00000023;stroke-miterlimit:4;stroke-dasharray:none"
         id="path183" /><path
         d="m 4045.45,2615.01 c -169.64,15.82 -339,33.53 -508.38,51.84 -2.05,2.11 -4.97,3.54 -8.81,3.26 l -15.8,-1.12 c -13.58,-0.98 -11.87,-22.35 1.16,-23.37 177.03,-13.82 353.9,-28.3 530.71,-44.79 9.13,-0.85 10.24,13.33 1.12,14.18"
         style="fill:none;fill-opacity:1;fill-rule:nonzero;stroke:#000000;stroke-opacity:1;stroke-width:10.00000023;stroke-miterlimit:4;stroke-dasharray:none"
         id="path185" /><path
         d="m 4126.64,2580.07 c -185.43,10.27 -370.38,22.85 -554.96,43.78 -15.62,2.74 -18.23,-23.55 -1.96,-24.9 184.97,-15.31 370.59,-26.54 556.23,-27.7 5.64,-0.04 6.45,8.51 0.69,8.82"
         style="fill:none;fill-opacity:1;fill-rule:nonzero;stroke:#000000;stroke-opacity:1;stroke-width:10.00000023;stroke-miterlimit:4;stroke-dasharray:none"
         id="path187" /><path
         d="m 4154.58,2553.46 c -184.63,-10.69 -369.99,15.28 -554.07,26.21 -16.05,0.96 -18.05,-23.89 -1.97,-24.89 184.3,-11.47 373.73,-29.17 558.05,-12.52 7.39,0.66 5.15,11.61 -2.01,11.2"
         style="fill:none;fill-opacity:1;fill-rule:nonzero;stroke:#000000;stroke-opacity:1;stroke-width:10.00000023;stroke-miterlimit:4;stroke-dasharray:none"
         id="path189" /><path
         d="m 4156.38,2529.92 c -168.46,3.75 -338.63,7.95 -507.08,5.99 -15.01,-0.17 -17.33,-22.95 -1.86,-23.63 168.2,-7.48 341.4,-2.31 509.39,8.56 5.19,0.33 4.72,8.97 -0.45,9.08"
         style="fill:none;fill-opacity:1;fill-rule:nonzero;stroke:#000000;stroke-opacity:1;stroke-width:10.00000023;stroke-miterlimit:4;stroke-dasharray:none"
         id="path191" /><path
         d="m 4145.69,2484.92 c -135.41,-17.8 -270.62,-9.05 -406.45,-15.23 9.58,-7.34 18.93,-15.05 28.12,-23.03 126.96,4.86 256.66,0.21 380.58,27.49 -1.12,3.6 -1.83,7.19 -2.25,10.77"
         style="fill:none;fill-opacity:1;fill-rule:nonzero;stroke:#000000;stroke-opacity:1;stroke-width:10.00000023;stroke-miterlimit:4;stroke-dasharray:none"
         id="path193" /><path
         d="m 4127.26,2441.14 c -55.73,-9.08 -111.88,-11.94 -168.48,-14.24 -37.23,-1.52 -96.81,6.66 -127.93,-14.59 -6.78,-4.64 -4.73,-15.15 1.08,-19.31 0.64,-0.46 1.28,-0.92 1.91,-1.38 5.52,-3.94 12.74,-1.77 16.64,3.22 0.18,0.22 0.36,0.45 0.53,0.67 20.68,8.3 53.02,6.72 73.5,8.62 29.35,2.73 58.76,4.63 88.11,7.25 36.33,3.23 71.81,7.92 106.88,15.95 2.49,4.66 5.08,9.26 7.76,13.81"
         style="fill:none;fill-opacity:1;fill-rule:nonzero;stroke:#000000;stroke-opacity:1;stroke-width:10.00000023;stroke-miterlimit:4;stroke-dasharray:none"
         id="path195" /><path
         d="m 4109.95,2408.34 c -42.04,-5.54 -84.46,-9.24 -126.84,-9.14 -13.86,0.04 -13.02,-20.53 0.95,-19.09 40.53,4.15 80.65,9.4 120.59,16.84 1.71,3.82 3.5,7.61 5.3,11.39"
         style="fill:none;fill-opacity:1;fill-rule:nonzero;stroke:#000000;stroke-opacity:1;stroke-width:10.00000023;stroke-miterlimit:4;stroke-dasharray:none"
         id="path197" /><path
         d="m 4485.37,4589.88 c 4.19,4.87 -4.1,12.4 -8.51,7.62 -5.19,-5.61 -10.37,-11.23 -15.56,-16.84 -1.22,-1.33 -0.03,-3.86 1.88,-2.89 -46.58,-23.73 -94.65,-78.57 -140.48,-112.57 -53.82,-39.92 -110.07,-76.7 -166.95,-112.07 -105.97,-65.91 -214.39,-127.59 -318.49,-196.52 -219.78,-145.51 -428.38,-296.66 -688.8,-359.76 -9.69,-2.34 -7.19,-16.56 2.73,-15.25 253.75,33.64 465.93,194.54 672.67,333.26 223.58,150.01 483.12,267.58 661.51,475.02"
         style="fill:none;fill-opacity:1;fill-rule:nonzero;stroke:#000000;stroke-opacity:1;stroke-width:10.00000023;stroke-miterlimit:4;stroke-dasharray:none"
         id="path199" /><path
         d="m 4588.59,4546.63 c -45.39,4.16 -92.52,5.58 -138.48,4.29 -0.49,1.31 -1.87,2.25 -3.67,1.68 -5.17,-0.74 -10.32,-1.47 -15.49,-2.21 -8.19,0.41 -9.22,-12.12 -1,-12.72 52.19,-3.84 104.93,-6.84 157.2,-9.32 11.78,-0.55 13.23,17.2 1.44,18.28"
         style="fill:none;fill-opacity:1;fill-rule:nonzero;stroke:#000000;stroke-opacity:1;stroke-width:10.00000023;stroke-miterlimit:4;stroke-dasharray:none"
         id="path201" /><path
         d="m 4628.23,4505.1 c 5.31,5.54 3.64,16.88 -5.54,17.07 -80.17,1.6 -160.59,-0.88 -240.72,-3.13 -7.59,-0.21 -8.77,-11.94 -0.94,-11.98 74.39,-0.37 148.73,-2.77 223.1,-3.92 1.39,-3.57 4.76,-6.41 9.24,-5.54 7.86,1.53 9.38,1.78 14.86,7.5"
         style="fill:none;fill-opacity:1;fill-rule:nonzero;stroke:#000000;stroke-opacity:1;stroke-width:10.00000023;stroke-miterlimit:4;stroke-dasharray:none"
         id="path203" /><path
         d="m 4578.1,4467.17 c 0.17,0.73 0.34,1.46 0.51,2.18 1.12,4.79 -0.69,8.55 -5.16,10.68 -13.97,6.65 -33.1,3.12 -48.22,3.25 -23.17,0.19 -46.33,0.05 -69.49,-0.44 -42.11,-0.87 -84.17,-2.98 -126.19,-5.95 -5.14,-0.36 -4.75,-9.26 0.45,-9.08 39.24,1.37 78.48,1.98 117.74,1.51 18.48,-0.23 36.96,-0.66 55.44,-1.32 9.24,-0.33 18.47,-0.71 27.7,-1.15 19.35,-0.91 16.01,1.1 34.47,9.45 -8.25,-3.73 -3.85,-15.69 4.65,-14.64 l 1.94,0.24 c 2.57,0.32 5.55,2.66 6.16,5.27"
         style="fill:none;fill-opacity:1;fill-rule:nonzero;stroke:#000000;stroke-opacity:1;stroke-width:10.00000023;stroke-miterlimit:4;stroke-dasharray:none"
         id="path205" /><path
         d="m 4528.36,4450.57 c -80.95,2.08 -162.61,-5.34 -242.72,-16.45 -6.32,-0.87 -4.47,-10.27 1.73,-9.64 79.95,8.13 159.36,9.01 239.61,8.44 11.3,-0.08 12.85,17.35 1.38,17.65"
         style="fill:none;fill-opacity:1;fill-rule:nonzero;stroke:#000000;stroke-opacity:1;stroke-width:10.00000023;stroke-miterlimit:4;stroke-dasharray:none"
         id="path207" /><path
         d="m 4459.43,4415.81 c -72.9,-3.92 -145.75,-8.55 -218.55,-13.88 -7.98,-0.58 -5.59,-12.56 2.18,-12.13 67.84,3.71 135.71,6.76 203.6,9.25 1.42,-1.01 3.28,-1.53 5.64,-1.11 3.34,0.58 6.68,1.17 10.02,1.76 10.7,1.87 7.3,16.67 -2.89,16.11"
         style="fill:none;fill-opacity:1;fill-rule:nonzero;stroke:#000000;stroke-opacity:1;stroke-width:10.00000023;stroke-miterlimit:4;stroke-dasharray:none"
         id="path209" /><path
         d="m 4409.85,4376.27 c -67.77,-4.18 -135.47,-9.45 -203.08,-15.56 -6.94,-0.63 -4.9,-11.08 1.9,-10.58 62.52,4.53 125.06,7.53 187.7,9.45 1.44,-1.16 3.43,-1.76 5.95,-1.29 3.47,0.64 6.94,1.29 10.41,1.94 10.59,1.98 7.31,16.67 -2.88,16.04"
         style="fill:none;fill-opacity:1;fill-rule:nonzero;stroke:#000000;stroke-opacity:1;stroke-width:10.00000023;stroke-miterlimit:4;stroke-dasharray:none"
         id="path211" /><path
         d="m 4340.82,4330.72 c -69,-2.3 -137.93,-6.04 -206.78,-11.27 -6.98,-0.53 -4.86,-10.91 1.9,-10.57 67.83,3.37 135.7,5.27 203.62,5.76 10.39,0.08 11.55,16.42 1.26,16.08"
         style="fill:none;fill-opacity:1;fill-rule:nonzero;stroke:#000000;stroke-opacity:1;stroke-width:10.00000023;stroke-miterlimit:4;stroke-dasharray:none"
         id="path213" /><path
         d="m 4288.08,4282.85 c -74.96,-0.1 -149.91,-0.21 -224.86,-0.32 -8.07,-0.01 -9.18,-12.49 -1,-12.6 74.87,-1.05 149.73,-2.1 224.59,-3.14 10.37,-0.15 11.62,16.08 1.27,16.06"
         style="fill:none;fill-opacity:1;fill-rule:nonzero;stroke:#000000;stroke-opacity:1;stroke-width:10.00000023;stroke-miterlimit:4;stroke-dasharray:none"
         id="path215" /><path
         d="m 4228.6,4242.09 c -77.72,2.97 -155.44,2.53 -233.17,0.06 -7.25,-0.23 -8.21,-11.57 -0.89,-11.34 77.68,2.46 155.27,0.61 232.84,-4.16 9.97,-0.61 11.18,15.06 1.22,15.44"
         style="fill:none;fill-opacity:1;fill-rule:nonzero;stroke:#000000;stroke-opacity:1;stroke-width:10.00000023;stroke-miterlimit:4;stroke-dasharray:none"
         id="path217" /><path
         d="m 4144.58,4192.37 c -67.19,6.51 -134.58,7.39 -201.92,2.76 -6.11,-0.43 -4.31,-9.68 1.68,-9.34 66.63,3.8 132.98,1.74 199.25,-6.03 8.08,-0.94 9.11,11.83 0.99,12.61"
         style="fill:none;fill-opacity:1;fill-rule:nonzero;stroke:#000000;stroke-opacity:1;stroke-width:10.00000023;stroke-miterlimit:4;stroke-dasharray:none"
         id="path219" /><path
         d="m 4110.73,4158.13 c -81.42,1.13 -162.78,0.23 -244.14,-3 -8,-0.32 -9.18,-12.8 -1,-12.61 81.28,1.91 162.56,1.65 243.82,-1.1 10.79,-0.36 12.08,16.56 1.32,16.71"
         style="fill:none;fill-opacity:1;fill-rule:nonzero;stroke:#000000;stroke-opacity:1;stroke-width:10.00000023;stroke-miterlimit:4;stroke-dasharray:none"
         id="path221" /><path
         d="m 4041.76,4116.29 c -74.37,10.55 -151.71,7.44 -226.17,-0.82 -6.3,-0.71 -4.47,-10.23 1.74,-9.65 75.27,7.06 148.33,3.49 223.44,-2.14 8.19,-0.62 8.99,11.47 0.99,12.61"
         style="fill:none;fill-opacity:1;fill-rule:nonzero;stroke:#000000;stroke-opacity:1;stroke-width:10.00000023;stroke-miterlimit:4;stroke-dasharray:none"
         id="path223" /><path
         d="m 3981.86,4070 c -83.87,1.09 -168.34,-4.78 -252.04,-9.66 -6.39,-0.38 -5.9,-11.57 0.56,-11.28 83.43,3.79 167.02,3.67 250.41,7.39 8.51,0.38 10,13.44 1.07,13.55"
         style="fill:none;fill-opacity:1;fill-rule:nonzero;stroke:#000000;stroke-opacity:1;stroke-width:10.00000023;stroke-miterlimit:4;stroke-dasharray:none"
         id="path225" /><path
         d="m 3917.3,4037.78 c -86.76,-0.59 -179.92,-1.25 -265.71,-14.39 -5.17,-0.79 -4.71,-8.68 0.46,-9.09 86.82,-6.79 179.25,-0.51 266.15,5.32 10.31,0.69 9.49,18.23 -0.9,18.16"
         style="fill:none;fill-opacity:1;fill-rule:nonzero;stroke:#000000;stroke-opacity:1;stroke-width:10.00000023;stroke-miterlimit:4;stroke-dasharray:none"
         id="path227" /><path
         d="m 3880.31,4010.27 c -83.5,-1.87 -166.9,-5.8 -250.18,-12.15 -2.31,-0.18 -2.13,-4.16 0.2,-4.07 82.94,3.02 165.87,3.71 248.84,1.72 9.43,-0.22 10.39,14.71 1.14,14.5"
         style="fill:none;fill-opacity:1;fill-rule:nonzero;stroke:#000000;stroke-opacity:1;stroke-width:10.00000023;stroke-miterlimit:4;stroke-dasharray:none"
         id="path229" /><path
         d="m 3856.54,3981.05 c -95.17,2.2 -190.27,-0.99 -285.17,-8.39 -5.31,-0.42 -3.74,-8.42 1.45,-8.09 94.18,5.89 188.24,5.52 282.43,0.1 10.6,-0.61 11.84,16.14 1.29,16.38"
         style="fill:none;fill-opacity:1;fill-rule:nonzero;stroke:#000000;stroke-opacity:1;stroke-width:10.00000023;stroke-miterlimit:4;stroke-dasharray:none"
         id="path231" /><path
         d="m 3811.82,3944.96 c -89.61,7.87 -180.67,4.67 -270.2,-2.94 -4.52,-0.39 -3.13,-7.07 1.23,-6.85 89.73,4.52 178.27,0.4 267.76,-5.65 9.95,-0.67 11.16,14.57 1.21,15.44"
         style="fill:none;fill-opacity:1;fill-rule:nonzero;stroke:#000000;stroke-opacity:1;stroke-width:10.00000023;stroke-miterlimit:4;stroke-dasharray:none"
         id="path233" /><path
         d="m 3761.15,3908.94 c -96.41,12.32 -195.38,12.25 -292.33,8.02 -7.8,-0.34 -8.96,-12.5 -0.97,-12.29 98.07,2.66 194.39,-4.25 291.99,-12.43 10.81,-0.91 11.96,15.34 1.31,16.7"
         style="fill:none;fill-opacity:1;fill-rule:nonzero;stroke:#000000;stroke-opacity:1;stroke-width:10.00000023;stroke-miterlimit:4;stroke-dasharray:none"
         id="path235" /><path
         d="m 3707.79,3875.44 c -13.1,9.37 -36.33,7.04 -51.81,8.37 -27.26,2.35 -54.59,3.89 -81.93,4.74 -52.76,1.64 -105.45,0.35 -158.1,-3.18 -6.03,-0.4 -5.57,-10.93 0.52,-10.64 47.19,2.22 94.38,2.69 141.58,0.67 22.36,-0.96 44.7,-2.42 66.99,-4.4 19.85,-1.76 50.99,0.47 70.21,-7.3 0.03,-0.03 0.03,-0.07 0.06,-0.11 0.26,-0.32 0.53,-0.63 0.8,-0.95 2.82,-3.37 7.71,-3.43 11.04,-0.87 0.45,0.34 0.9,0.68 1.34,1.03 4.22,3.23 3.3,9.77 -0.7,12.64"
         style="fill:none;fill-opacity:1;fill-rule:nonzero;stroke:#000000;stroke-opacity:1;stroke-width:10.00000023;stroke-miterlimit:4;stroke-dasharray:none"
         id="path237" /><path
         d="m 3661.94,3848.55 c -109.92,8.25 -220.36,10.16 -330.55,8.59 -7.85,-0.12 -8.95,-12.31 -0.97,-12.29 110.34,0.2 220.19,-4.87 330.26,-12.37 10.35,-0.7 11.63,15.3 1.26,16.07"
         style="fill:none;fill-opacity:1;fill-rule:nonzero;stroke:#000000;stroke-opacity:1;stroke-width:10.00000023;stroke-miterlimit:4;stroke-dasharray:none"
         id="path239" /><path
         d="m 3642.44,3813.96 c -126.88,13.72 -254.04,17.33 -381.5,11 -3.55,-0.18 -3.28,-6.34 0.31,-6.27 127.19,2.76 253.81,-4.51 379.85,-21.74 10.87,-1.49 12.3,15.83 1.34,17.01"
         style="fill:none;fill-opacity:1;fill-rule:nonzero;stroke:#000000;stroke-opacity:1;stroke-width:10.00000023;stroke-miterlimit:4;stroke-dasharray:none"
         id="path241" /><path
         d="m 3637.95,3786.1 c -142.62,-0.21 -286,-0.04 -428.35,-9.69 -3.22,-0.22 -2.93,-5.57 0.28,-5.63 142.18,-2.56 284.42,-0.12 426.63,-2.96 11.81,-0.23 13.2,18.3 1.44,18.28"
         style="fill:none;fill-opacity:1;fill-rule:nonzero;stroke:#000000;stroke-opacity:1;stroke-width:10.00000023;stroke-miterlimit:4;stroke-dasharray:none"
         id="path243" /><path
         d="m 3552.55,3749.51 c -74.18,-0.14 -148.36,-0.26 -222.54,-0.27 -6.25,0 -7.12,-9.63 -0.77,-9.76 74.04,-1.62 148.08,-3.34 222.12,-5.09 9.79,-0.23 10.92,15.14 1.19,15.12"
         style="fill:none;fill-opacity:1;fill-rule:nonzero;stroke:#000000;stroke-opacity:1;stroke-width:10.00000023;stroke-miterlimit:4;stroke-dasharray:none"
         id="path245" /><path
         d="m 5134.96,2750.13 c 86.44,100.02 167.88,206.37 238.26,318.37 29.6,47.12 56.65,95.9 80.53,146.16 20.46,43.05 64.37,117.42 60.18,165.34 0.2,-2.41 3.81,-2.03 4.06,0.2 0.87,7.48 1.74,14.97 2.61,22.45 0.57,4.91 -6.92,6.47 -8.45,1.77 -79.05,-242.04 -234.78,-448.41 -399.41,-639.25 -176.32,-204.41 -378.3,-375.52 -594.03,-536.48 -11.49,-8.57 2.75,-24.01 14.16,-16.59 225.22,146.52 426.76,335.16 602.09,538.03"
         style="fill:none;fill-opacity:1;fill-rule:nonzero;stroke:#000000;stroke-opacity:1;stroke-width:10.00000023;stroke-miterlimit:4;stroke-dasharray:none"
         id="path247" /><path
         d="m 5540.06,3296.71 c -9.32,3.73 -21.49,3.58 -31.43,3.63 -7.72,0.03 -21.38,1.91 -27.46,-3.41 -3.76,-3.3 -2.32,-8.87 2.02,-10.72 3.59,-1.54 7.69,-1.05 11.54,-1.26 4.68,-0.24 9.35,-0.63 14,-1.14 9.03,-0.98 18.91,-3.76 27.92,-3.36 9.16,0.4 12.8,12.5 3.41,16.26"
         style="fill:none;fill-opacity:1;fill-rule:nonzero;stroke:#000000;stroke-opacity:1;stroke-width:10.00000023;stroke-miterlimit:4;stroke-dasharray:none"
         id="path249" /><path
         d="m 5552.43,3277.62 c -25.31,0.97 -51.49,-2.75 -76.76,-4.34 -6.77,-0.43 -6.21,-11.9 0.58,-11.9 25.37,0.01 51.72,-1.99 76.96,0.58 8.93,0.91 8.13,15.31 -0.78,15.66"
         style="fill:none;fill-opacity:1;fill-rule:nonzero;stroke:#000000;stroke-opacity:1;stroke-width:10.00000023;stroke-miterlimit:4;stroke-dasharray:none"
         id="path251" /><path
         d="m 5531.4,3252.64 c -26.12,-0.16 -52.44,-2.08 -78.27,-5.99 -6.48,-0.97 -4.63,-10.77 1.79,-9.95 25.21,3.22 50.02,3.72 75.34,1.44 9.43,-0.85 10.41,14.55 1.14,14.5"
         style="fill:none;fill-opacity:1;fill-rule:nonzero;stroke:#000000;stroke-opacity:1;stroke-width:10.00000023;stroke-miterlimit:4;stroke-dasharray:none"
         id="path253" /><path
         d="m 5530.43,3219.67 c -32.09,6.55 -64.65,7.26 -97.02,2.36 -7.7,-1.16 -5.5,-12.72 2.13,-11.82 30.78,3.63 61.64,1.93 91.81,-5.27 10.57,-2.52 13.91,12.52 3.08,14.73"
         style="fill:none;fill-opacity:1;fill-rule:nonzero;stroke:#000000;stroke-opacity:1;stroke-width:10.00000023;stroke-miterlimit:4;stroke-dasharray:none"
         id="path255" /><path
         d="m 5512.28,3191.89 c -31.04,5.34 -64.79,2.59 -95.77,-1.91 -7.9,-1.14 -5.65,-13.08 2.18,-12.13 31.3,3.76 61.23,1.71 92.5,0.18 9.09,-0.44 9.81,12.37 1.09,13.86"
         style="fill:none;fill-opacity:1;fill-rule:nonzero;stroke:#000000;stroke-opacity:1;stroke-width:10.00000023;stroke-miterlimit:4;stroke-dasharray:none"
         id="path257" /><path
         d="m 5492.42,3164.1 c -26.6,-1.42 -53.19,-2.83 -79.78,-4.25 -6.22,-0.33 -5.73,-11.12 0.54,-10.96 26.63,0.68 53.26,1.37 79.89,2.05 9.53,0.24 8.98,13.67 -0.65,13.16"
         style="fill:none;fill-opacity:1;fill-rule:nonzero;stroke:#000000;stroke-opacity:1;stroke-width:10.00000023;stroke-miterlimit:4;stroke-dasharray:none"
         id="path259" /><path
         d="m 5471.25,3129.4 c -25.55,7.61 -55.2,5.21 -80.89,-0.51 -9.11,-2.04 -6.68,-16 2.57,-14.32 25.84,4.7 49.28,1.83 74.98,-1.13 9.18,-1.05 12.36,13.27 3.34,15.96"
         style="fill:none;fill-opacity:1;fill-rule:nonzero;stroke:#000000;stroke-opacity:1;stroke-width:10.00000023;stroke-miterlimit:4;stroke-dasharray:none"
         id="path261" /><path
         d="m 5454.82,3089.77 c -31.15,5.18 -64.3,1.62 -94.73,-6.04 -8.83,-2.22 -6.42,-16.15 2.52,-14 30.48,7.32 59.97,7.68 91.06,5.55 9.49,-0.65 10.25,12.98 1.15,14.49"
         style="fill:none;fill-opacity:1;fill-rule:nonzero;stroke:#000000;stroke-opacity:1;stroke-width:10.00000023;stroke-miterlimit:4;stroke-dasharray:none"
         id="path263" /><path
         d="m 5426.02,3047.83 c -28.6,5.02 -58.13,3.53 -86.53,-2.07 -9.39,-1.86 -6.79,-16.36 2.63,-14.63 27.66,5.08 54.86,4.83 82.71,1.57 9.85,-1.15 10.64,13.47 1.19,15.13"
         style="fill:none;fill-opacity:1;fill-rule:nonzero;stroke:#000000;stroke-opacity:1;stroke-width:10.00000023;stroke-miterlimit:4;stroke-dasharray:none"
         id="path265" /><path
         d="m 5417.29,2998.35 c -38.2,0.68 -76.41,1.36 -114.61,2.04 -8.31,0.15 -9.39,-12.73 -1.02,-12.92 38.19,-0.89 76.38,-1.78 114.56,-2.67 8.73,-0.21 9.83,13.4 1.07,13.55"
         style="fill:none;fill-opacity:1;fill-rule:nonzero;stroke:#000000;stroke-opacity:1;stroke-width:10.00000023;stroke-miterlimit:4;stroke-dasharray:none"
         id="path267" /><path
         d="m 5387.96,2945.14 c -38.74,9.33 -79.97,9.9 -119.53,6.97 -8.99,-0.66 -6.32,-14.19 2.46,-13.69 38.75,2.2 75.78,-2.39 113.99,-8.01 8.4,-1.23 11.52,12.71 3.08,14.73"
         style="fill:none;fill-opacity:1;fill-rule:nonzero;stroke:#000000;stroke-opacity:1;stroke-width:10.00000023;stroke-miterlimit:4;stroke-dasharray:none"
         id="path269" /><path
         d="m 5368.39,2903.3 c -43.73,4.14 -89.08,0.84 -132.81,-2.26 -9.57,-0.69 -6.79,-15.23 2.63,-14.63 43.09,2.73 85.94,0.97 129.01,2.09 9.37,0.24 10.91,13.89 1.17,14.8"
         style="fill:none;fill-opacity:1;fill-rule:nonzero;stroke:#000000;stroke-opacity:1;stroke-width:10.00000023;stroke-miterlimit:4;stroke-dasharray:none"
         id="path271" /><path
         d="m 5355.69,2865.99 c -46.82,9.94 -100.21,4.88 -147.82,3.22 -8.64,-0.3 -9.83,-13.81 -1.06,-13.54 25.77,0.77 51.55,1.03 77.33,0.61 23.41,-0.38 47.39,-3.28 70.71,-0.95 5.3,0.52 6.25,9.52 0.84,10.66"
         style="fill:none;fill-opacity:1;fill-rule:nonzero;stroke:#000000;stroke-opacity:1;stroke-width:10.00000023;stroke-miterlimit:4;stroke-dasharray:none"
         id="path273" /><path
         d="m 5319.26,2826.05 c -37.64,1.26 -75.26,2.53 -112.9,3.79 -9.34,0.31 -10.53,-14.13 -1.14,-14.5 37.62,-1.47 75.23,-2.94 112.85,-4.42 9.75,-0.38 10.97,14.81 1.19,15.13"
         style="fill:none;fill-opacity:1;fill-rule:nonzero;stroke:#000000;stroke-opacity:1;stroke-width:10.00000023;stroke-miterlimit:4;stroke-dasharray:none"
         id="path275" /><path
         d="m 5294.62,2775.72 c -51.94,7.73 -108.52,1.14 -161.02,0.67 -8.89,-0.08 -10.07,-13.91 -1.1,-13.87 53,0.24 110.27,-5.65 162.63,2.86 6.09,0.99 5.16,9.5 -0.51,10.34"
         style="fill:none;fill-opacity:1;fill-rule:nonzero;stroke:#000000;stroke-opacity:1;stroke-width:10.00000023;stroke-miterlimit:4;stroke-dasharray:none"
         id="path277" /><path
         d="m 5274.62,2742.34 c -21.73,12.06 -53.06,4.53 -77.06,3.26 -17.13,-0.91 -34.24,-2.1 -51.35,-3.35 -13.76,-1 -29.48,0.19 -42.47,-4.74 -2.13,-0.81 -3.84,-3.89 -3.19,-6.16 0.19,-0.61 0.36,-1.22 0.54,-1.84 0.66,-2.31 2.15,-3.75 4.54,-4.11 0.51,-0.07 1.01,-0.15 1.53,-0.23 3.89,-0.59 6.09,4.51 3.71,7.28 6.98,-8.15 26.59,-3.73 36,-3.5 14.03,0.33 28.07,0.55 42.11,0.82 15.61,0.29 41.39,5.01 60.6,2.32 -0.49,-5.2 3.4,-11.07 9.54,-9.46 4.08,0.97 8.1,2.12 12.07,3.47 6.52,2.05 11.1,11.98 3.43,16.24"
         style="fill:none;fill-opacity:1;fill-rule:nonzero;stroke:#000000;stroke-opacity:1;stroke-width:10.00000023;stroke-miterlimit:4;stroke-dasharray:none"
         id="path279" /><path
         d="m 5239.74,2707.81 c -52.78,-0.6 -105.51,-4.16 -157.88,-10.87 -4.68,-0.6 -3.32,-7.62 1.29,-7.16 51.81,5.24 103.53,6.97 155.57,5.11 8.41,-0.31 9.29,13.01 1.02,12.92"
         style="fill:none;fill-opacity:1;fill-rule:nonzero;stroke:#000000;stroke-opacity:1;stroke-width:10.00000023;stroke-miterlimit:4;stroke-dasharray:none"
         id="path281" /><path
         d="m 5202.41,2659.44 c -60.82,2.26 -121.45,0 -181.92,-6.8 -6.95,-0.78 -4.89,-11.14 1.91,-10.58 55.6,4.59 111.23,5.1 166.88,1.93 1.87,-2.75 5.23,-4.42 9.27,-2.69 2.21,0.95 4.42,1.9 6.63,2.84 7.29,3.13 5.21,15 -2.77,15.3"
         style="fill:none;fill-opacity:1;fill-rule:nonzero;stroke:#000000;stroke-opacity:1;stroke-width:10.00000023;stroke-miterlimit:4;stroke-dasharray:none"
         id="path283" /><path
         d="m 5196.08,2618.46 c -68.89,0.22 -138.01,-4.94 -206.48,-12.26 -7.35,-0.78 -5.17,-11.75 2.01,-11.2 67.74,5.32 135.26,6.48 203.15,6.76 10.7,0.04 12.15,16.66 1.32,16.7"
         style="fill:none;fill-opacity:1;fill-rule:nonzero;stroke:#000000;stroke-opacity:1;stroke-width:10.00000023;stroke-miterlimit:4;stroke-dasharray:none"
         id="path285" /><path
         d="m 5149.93,2580.35 c -69.23,1.21 -139.17,-4.65 -207.95,-11.92 -7.77,-0.83 -5.47,-12.43 2.12,-11.83 68.23,5.4 136.17,5.88 204.52,7.05 10.61,0.18 12.22,16.51 1.31,16.7"
         style="fill:none;fill-opacity:1;fill-rule:nonzero;stroke:#000000;stroke-opacity:1;stroke-width:10.00000023;stroke-miterlimit:4;stroke-dasharray:none"
         id="path287" /><path
         d="m 5116.66,2541.33 c -77.88,-3.04 -155.54,-8.14 -233.5,-9.46 -7.23,-0.12 -8.28,-11.3 -0.89,-11.34 78.23,-0.42 157.11,-0.63 235.16,5.15 8.87,0.65 8.2,16 -0.77,15.65"
         style="fill:none;fill-opacity:1;fill-rule:nonzero;stroke:#000000;stroke-opacity:1;stroke-width:10.00000023;stroke-miterlimit:4;stroke-dasharray:none"
         id="path289" /><path
         d="m 5084.92,2482.81 c -84.33,1.92 -168.67,3.84 -252.99,5.77 -8.1,0.18 -9.17,-12.3 -1,-12.61 84.23,-3.18 168.47,-6.37 252.7,-9.55 10.57,-0.4 11.86,16.14 1.29,16.39"
         style="fill:none;fill-opacity:1;fill-rule:nonzero;stroke:#000000;stroke-opacity:1;stroke-width:10.00000023;stroke-miterlimit:4;stroke-dasharray:none"
         id="path291" /><path
         d="m 5035.64,2436.75 c -80.66,3.52 -161.23,1.34 -241.61,-6.07 -6.55,-0.61 -4.6,-10.41 1.78,-9.96 76.48,5.33 152.88,5.45 229.37,1.06 0.7,-0.27 1.44,-0.5 2.32,-0.49 2.31,0.02 4.62,0.04 6.93,0.06 9.8,0.07 11.29,14.96 1.21,15.4"
         style="fill:none;fill-opacity:1;fill-rule:nonzero;stroke:#000000;stroke-opacity:1;stroke-width:10.00000023;stroke-miterlimit:4;stroke-dasharray:none"
         id="path293" /><path
         d="m 5000.65,2391.37 c -89.06,-4.6 -178.03,-2.61 -266.82,5.66 -9.33,0.87 -10.45,-13.54 -1.14,-14.5 89.4,-9.17 179,-11.86 268.8,-8.07 12.23,0.51 11.54,17.55 -0.84,16.91"
         style="fill:none;fill-opacity:1;fill-rule:nonzero;stroke:#000000;stroke-opacity:1;stroke-width:10.00000023;stroke-miterlimit:4;stroke-dasharray:none"
         id="path295" /><path
         d="m 4958.57,2355.21 c -93.62,2.43 -187.2,2.14 -280.79,-0.86 -7.22,-0.24 -8.27,-11.47 -0.89,-11.35 93.51,1.53 186.98,0.35 280.43,-3.54 10.17,-0.42 11.41,15.48 1.25,15.75"
         style="fill:none;fill-opacity:1;fill-rule:nonzero;stroke:#000000;stroke-opacity:1;stroke-width:10.00000023;stroke-miterlimit:4;stroke-dasharray:none"
         id="path297" /><path
         d="m 4903.65,2306.04 c -97.99,11.98 -197.84,10.97 -296.12,3.34 -7.15,-0.56 -5.03,-11.32 1.97,-10.89 98.33,6.02 195.01,1.38 292.95,-7.58 9.78,-0.9 10.85,13.95 1.2,15.13"
         style="fill:none;fill-opacity:1;fill-rule:nonzero;stroke:#000000;stroke-opacity:1;stroke-width:10.00000023;stroke-miterlimit:4;stroke-dasharray:none"
         id="path299" /><path
         d="m 4859.28,2270.04 c -103.24,1.22 -206.44,-0.25 -309.6,-4.43 -8,-0.33 -9.17,-12.82 -0.99,-12.61 103.09,2.71 206.17,2.72 309.25,0.02 10.98,-0.28 12.32,16.9 1.34,17.02"
         style="fill:none;fill-opacity:1;fill-rule:nonzero;stroke:#000000;stroke-opacity:1;stroke-width:10.00000023;stroke-miterlimit:4;stroke-dasharray:none"
         id="path301" /><path
         d="m 4865.26,2244.33 c -119.84,-0.62 -239.91,-7.89 -359.65,-12.27 -9.84,-0.35 -11.2,-15.74 -1.21,-15.44 120.45,3.62 241.36,4.38 361.65,11.74 9.07,0.56 8.34,16.02 -0.79,15.97"
         style="fill:none;fill-opacity:1;fill-rule:nonzero;stroke:#000000;stroke-opacity:1;stroke-width:10.00000023;stroke-miterlimit:4;stroke-dasharray:none"
         id="path303" /><path
         d="m 4829.86,2218.56 c -106.04,-0.76 -212.21,-6.42 -318.2,-9.85 -10.27,-0.33 -11.64,-16.4 -1.27,-16.07 106.67,3.46 213.68,4.75 320.21,10.88 8.53,0.5 7.85,15.1 -0.74,15.04"
         style="fill:none;fill-opacity:1;fill-rule:nonzero;stroke:#000000;stroke-opacity:1;stroke-width:10.00000023;stroke-miterlimit:4;stroke-dasharray:none"
         id="path305" /><path
         d="m 4824.65,2194.55 c -98.64,-2.27 -196.87,-9.99 -295.67,-9.92 -10.72,0.01 -12.13,-16.67 -1.32,-16.7 98.64,-0.3 199.72,-0.9 297.75,11.28 8.6,1.07 8.11,15.55 -0.76,15.34"
         style="fill:none;fill-opacity:1;fill-rule:nonzero;stroke:#000000;stroke-opacity:1;stroke-width:10.00000023;stroke-miterlimit:4;stroke-dasharray:none"
         id="path307" /><path
         d="m 4764.37,2158.02 c -69.33,-0.66 -138.88,-6.34 -208.14,-9.76 -8.52,-0.42 -7.86,-15.39 0.75,-15.02 69.27,2.96 139.05,3.72 208.15,9.43 8.7,0.72 8.04,15.43 -0.76,15.35"
         style="fill:none;fill-opacity:1;fill-rule:nonzero;stroke:#000000;stroke-opacity:1;stroke-width:10.00000023;stroke-miterlimit:4;stroke-dasharray:none"
         id="path309" /><path
         d="m 4736.07,2122.2 c -69.39,0.46 -139.11,-3.95 -208.34,-8.27 -10.57,-0.67 -7.52,-16.82 2.91,-16.18 68.03,4.13 136.1,5.32 204.16,8.39 10.1,0.45 11.84,15.99 1.27,16.06"
         style="fill:none;fill-opacity:1;fill-rule:nonzero;stroke:#000000;stroke-opacity:1;stroke-width:10.00000023;stroke-miterlimit:4;stroke-dasharray:none"
         id="path311" /><path
         d="m 4691.59,2084.36 c -50.36,1.28 -101.55,-3.88 -151.87,-6.12 -10.02,-0.44 -11.45,-16.13 -1.25,-15.76 51.04,1.84 103.12,0.82 153.9,6.22 8.89,0.94 8.18,15.43 -0.78,15.66"
         style="fill:none;fill-opacity:1;fill-rule:nonzero;stroke:#000000;stroke-opacity:1;stroke-width:10.00000023;stroke-miterlimit:4;stroke-dasharray:none"
         id="path313" /><path
         d="m 4639.77,2049.96 c -23.13,-4.22 -46.26,-8.45 -69.4,-12.68 -6.01,-1.11 -4.34,-10.32 1.68,-9.34 23.21,3.82 46.42,7.63 69.62,11.45 6.84,1.12 4.91,11.81 -1.9,10.57"
         style="fill:none;fill-opacity:1;fill-rule:nonzero;stroke:#000000;stroke-opacity:1;stroke-width:10.00000023;stroke-miterlimit:4;stroke-dasharray:none"
         id="path315" /><path
         d="m 1960.99,920.609 c 89.21,118.071 186.92,228.061 293,331.231 15.05,14.64 -5.88,39.6 -21.35,25 -88.96,-83.93 -171.61,-173.82 -248.32,-268.84 102.92,372.59 310.1,708.88 598.97,967.63 10.63,9.52 6.17,24.09 -5.59,29.73 -108.48,52.09 -263.72,22.07 -376.85,-0.85 -104.11,-21.09 -204.53,-55.23 -300.2,-100.45 121.66,138.71 246.46,275.33 389.43,392.46 165.61,135.67 355.82,233.7 545.71,330.3 11.78,6 13.34,27.12 -1.58,30.71 -149.38,36 -300.77,51.75 -453.71,47.38 193.83,119.95 406.44,203.38 630.58,247.94 16.34,3.25 16.35,24.16 2.39,30.43 -81.9,36.86 -163.84,73.66 -245.7,110.63 119.46,20.8 239.81,31.93 361.35,33.08 16.99,0.16 26.73,21.65 11.31,32.3 -22.59,15.61 -45.15,31.29 -67.76,46.89 69.19,-10.16 131.99,-43.15 186.46,-89.86 8.48,-7.27 18.69,5.96 12.53,14.01 -63.36,82.79 -159.26,120.17 -262.4,116.05 -17.67,-0.71 -28.84,-22.82 -12.02,-34.33 25.53,-17.49 51.34,-34.58 77.17,-51.61 -121.61,-5.29 -242.13,-20.04 -361.61,-44.73 -16.17,-3.34 -16.41,-24.05 -2.39,-30.32 82.59,-36.96 165.01,-74.29 247.47,-111.53 -231.27,-51.78 -449.36,-144.79 -647.71,-275.48 -15.21,-10.02 -0.36,-29.32 13.48,-28.46 153.53,9.54 306.46,-2.11 456.57,-34.19 -178.64,-91.39 -355.58,-186.57 -511.76,-313.9 -168.33,-137.26 -311.78,-301.45 -454.4,-464.39 -11.38,-12.99 7.38,-33.45 21.79,-25.51 109.77,60.44 226.22,106.23 348.71,133.36 105.28,23.32 247.95,54.23 355.4,17.61 -303.26,-279.39 -517.18,-644.32 -610.62,-1046.412 -4.47,-19.246 18.86,-32.816 31.65,-15.879"
         style="fill:none;fill-opacity:1;fill-rule:nonzero;stroke:#000000;stroke-opacity:1;stroke-width:10.00000023;stroke-miterlimit:4;stroke-dasharray:none"
         id="path317" /><path
         d="m 3233.12,1355.72 c 95.85,121.01 194.63,242.16 274.04,374.93 48.8,81.59 75.82,164.37 92.2,252.75 11.93,-79.54 16.43,-159.66 13.04,-240.97 -0.62,-14.89 18.36,-27.21 30.36,-15.46 123.44,120.8 207.13,269.71 246.36,436.35 15.34,-25.34 30.62,-50.7 46.12,-75.94 7.71,-12.56 28.08,-14.59 33.4,1.71 12.92,39.68 21.38,80 21.86,121.9 0.42,35.92 -28.44,106.71 -11.98,135.24 9.24,16.03 -14.1,32.37 -24.09,16.31 -17.59,-28.26 -6.56,-51.83 -1.69,-83.42 7.29,-47.34 4.24,-93.82 -6.87,-139.4 -16.05,27.04 -32.07,54.1 -48.29,81.04 -9.81,16.3 -32.05,12.43 -35.44,-6.43 -28.93,-160.86 -102.01,-307.21 -211.9,-426.68 0.55,104.76 -11.18,208.17 -35.64,310.6 -4.76,19.93 -34.18,19.49 -36.29,-1.8 -14.13,-142.74 -46.84,-262.21 -125.22,-383.8 -63.97,-99.24 -136.29,-192.85 -209.42,-285.55 13.6,143.65 1.9,287.16 -35.01,427.54 -5.23,19.89 -32.04,18.52 -35.4,-1.77 -37.67,-227.67 -185.08,-409.67 -334.67,-577.68 13.91,147.97 10.64,296.16 -9.78,443.73 -1.52,10.94 -14.77,17.66 -24.53,12.69 -124.3,-63.16 -230.96,-151.02 -335.46,-242.31 -111.89,-97.73 -222.35,-197.02 -332.1,-297.16 -11.99,-10.94 3.93,-29.74 16.42,-19.23 107.1,90.12 213.42,181.09 318.79,273.23 102.46,89.6 205.45,177.74 325.5,242.56 19.27,-154.55 19.46,-309.45 0.42,-464.2 -1.72,-13.99 18.57,-26.31 28.97,-14.77 150.19,166.8 302.9,342.83 364.04,560.93 25.8,-133.08 29.18,-268.2 9.35,-403.42 -2.82,-19.22 22.65,-24.48 32.91,-11.52"
         style="fill:none;fill-opacity:1;fill-rule:nonzero;stroke:#000000;stroke-opacity:1;stroke-width:10.00000023;stroke-miterlimit:4;stroke-dasharray:none"
         id="path319" /><path
         d="m 3684.63,2313.48 c 23.27,43.94 45.82,88.02 67.11,132.95 7.63,16.1 -18.96,29.45 -28.02,14.06 -24.64,-41.89 -47.4,-112.57 -81.26,-147.38 -3.33,-23.34 -11.41,-27.48 -24.22,-12.41 -13.31,6.32 -21.99,16.92 -26.03,31.78 -19.89,28.28 -35.13,61.64 -52.26,91.7 -6.8,11.94 -24,15.18 -32.34,2.55 -26.87,-40.72 -48.84,-83.35 -62.47,-130.36 -13.26,-45.72 -15.17,-104.11 -47.59,-140.94 -4.69,51.69 -9.17,103.42 -14.61,155.02 -3.84,36.43 -8.45,62.03 -36.84,85.65 -8.23,6.84 -20.11,2.16 -25.95,-5.01 -48.95,-60.05 -96.87,-120.91 -143.31,-182.93 -36.58,-48.86 -70.24,-109.41 -117.85,-150.18 23.13,62.33 44.7,125.17 64.64,188.63 4.97,15.85 -10.81,29.76 -25.94,23.4 -89.7,-37.65 -178.28,-77.79 -266.52,-118.68 122.6,117.28 256.03,222.04 400.03,312.68 14.2,8.93 15.22,29.47 -1.86,36.22 -67.65,26.75 -136.8,43.6 -207.9,50.81 109.56,42.71 221.94,76.71 337.21,101.65 16.41,3.54 20.14,23.92 7.16,33.85 -78.68,60.18 -162.09,113.3 -250.59,157.42 76.55,14.51 151.37,13.34 231.12,7.48 6.9,-0.51 11.56,6.61 8.87,12.8 -8.87,20.39 -17.73,40.77 -26.6,61.16 -0.14,0.34 -0.65,0.16 -0.59,-0.19 2.58,-16.92 12.91,-41.11 -1.83,-49.27 -11.94,-6.61 -83.79,10.96 -98.9,11.23 -56.94,1.05 -112.94,-6.24 -168.16,-19.96 -18.12,-4.51 -18.34,-26.34 -2.68,-34.01 89.9,-44.1 174.83,-94.09 255.35,-152.81 -132.96,-30.71 -262.28,-72.97 -387.8,-127.05 -17.29,-7.44 -13.07,-37.4 6.77,-37.26 85.72,0.61 168.37,-12.39 248.84,-39.45 -164.48,-107.54 -315.52,-232.08 -451.7,-374.21 -14.17,-14.78 -0.25,-41.55 20.5,-31.81 108.22,50.78 216.64,101.12 326.47,148.31 -22.1,-67.95 -45.92,-135.25 -71.73,-201.93 -5.95,-15.39 11.46,-29.9 25.81,-23.29 68.01,31.32 105.4,93.39 148.25,151.91 51.22,69.94 104.37,138.41 158.84,205.84 16.58,-29.76 13.34,-81.51 16.03,-110.23 3.91,-41.74 7.83,-83.5 11.73,-125.25 1.07,-11.38 16.35,-19.35 26.27,-13.59 40.16,23.25 58.63,56.73 71.04,100.77 17.56,62.3 30.73,119.49 61.09,175.32 19.77,-38.28 39.27,-79.59 65.06,-111.86 10.9,-13.64 20.73,-26.07 40,-23.77 31.87,3.78 45.35,47.95 57.36,70.64"
         style="fill:none;fill-opacity:1;fill-rule:nonzero;stroke:#000000;stroke-opacity:1;stroke-width:10.00000023;stroke-miterlimit:4;stroke-dasharray:none"
         id="path321" /><path
         d="m 3960.07,1787.42 c -116.15,57.55 -228.44,-84.3 -232.56,-189.73 -5.57,-142.94 160.51,-172.05 215.03,-278.48 35.43,-69.15 -9.07,-144.21 -88.66,-128.01 -72.97,14.86 -93.59,83.26 -108.38,146.82 -10.28,44.18 -80.65,34.83 -79.27,-10.73 3.38,-111.2 95.08,-226.76 214.78,-209.81 102.87,14.56 156.4,124.71 120.23,218.89 -20.89,54.39 -66.7,92.44 -108.64,130.45 -44.18,40.04 -93.22,88.75 -75.27,153.63 15.32,55.34 78.77,132.3 134.13,74.34 47.98,-50.24 55.2,-134.69 48.43,-200.2 -1.29,-12.39 16.28,-15.07 22.04,-5.96 57.08,90.28 43.61,246.51 -61.86,298.79"
         style="fill:none;fill-opacity:1;fill-rule:nonzero;stroke:#000000;stroke-opacity:1;stroke-width:10.00000023;stroke-miterlimit:4;stroke-dasharray:none"
         id="path323" /><path
         d="m 4251.13,1735.77 c -0.01,0.08 -0.02,0.16 -0.03,0.24 -0.23,1.72 -0.38,3.47 -0.65,5.17 l -0.55,-0.55 c -5.78,14.89 -28.42,25.48 -38.9,5.71 -37.82,-71.35 -40.17,-170.78 -50.79,-249.86 -11.93,-88.89 -21.21,-178.06 -28.08,-267.47 -3.98,-51.87 79.46,-52.66 81.41,0 3.23,87.73 8.71,175.35 16.93,262.76 7.33,77.83 30.92,166.25 20.66,244"
         style="fill:none;fill-opacity:1;fill-rule:nonzero;stroke:#000000;stroke-opacity:1;stroke-width:10.00000023;stroke-miterlimit:4;stroke-dasharray:none"
         id="path325" /><path
         d="m 4372.87,1798.09 c -47.94,-6.37 -95.89,-12.58 -143.78,-19.33 -47.19,-6.65 -97.81,-9.16 -143.42,-23.39 -31.28,-2.16 -38.04,-57.71 3.51,-61.62 46.51,-4.36 95.41,4.43 141.85,8.4 47.3,4.05 94.57,8.66 141.84,13.14 53.26,5.04 52.03,89.7 0,82.8"
         style="fill:none;fill-opacity:1;fill-rule:nonzero;stroke:#000000;stroke-opacity:1;stroke-width:10.00000023;stroke-miterlimit:4;stroke-dasharray:none"
         id="path327" /><path
         d="m 4585.25,1494.52 c -0.09,98.77 -0.06,197.54 0.08,296.32 0.06,48.26 -66.54,54.28 -81.43,11.02 -33.14,-96.28 -75.22,-188.16 -116.14,-281.25 -38.09,-86.62 -73.25,-173.04 -75.82,-268.6 -0.38,-14.16 21.54,-21.31 27.88,-7.55 41.05,89.09 80.01,179.3 123.74,267.26 13.87,27.92 27.99,55.82 41.81,83.87 0.53,-33.69 0.99,-67.38 1.54,-101.07 1.53,-93.54 -5.99,-194.75 14.7,-286.37 5.99,-26.52 48.81,-27.24 54.35,0 18.68,92.01 9.38,192.83 9.29,286.37"
         style="fill:none;fill-opacity:1;fill-rule:nonzero;stroke:#000000;stroke-opacity:1;stroke-width:10.00000023;stroke-miterlimit:4;stroke-dasharray:none"
         id="path329" /><path
         d="m 4526.84,1506.88 c -49.42,-8.28 -99.77,-35.17 -141.08,-62.59 -30.59,-20.31 -4.26,-62.3 28.19,-48.22 43.42,18.84 87.6,26.48 133.06,37.68 48.19,11.88 27.05,81.05 -20.17,73.13"
         style="fill:none;fill-opacity:1;fill-rule:nonzero;stroke:#000000;stroke-opacity:1;stroke-width:10.00000023;stroke-miterlimit:4;stroke-dasharray:none"
         id="path331" /><path
         d="m 4737.17,1823.03 c -5.79,10.84 -19.17,7.75 -24.54,-0.18 l -0.18,0.18 c -23.95,-32.26 -22.18,-82.87 -26.61,-121.78 -6,-52.84 -10.47,-105.7 -14.32,-158.75 -7.47,-102.47 -14.98,-206.22 -13.78,-309 0.6,-51.69 77.68,-51.3 80.01,0 4.67,102.8 3.65,206.1 6.1,309 1.19,49.99 2.74,99.94 3.52,149.94 0.65,42.44 10.32,92.13 -10.2,130.59"
         style="fill:none;fill-opacity:1;fill-rule:nonzero;stroke:#000000;stroke-opacity:1;stroke-width:10.00000023;stroke-miterlimit:4;stroke-dasharray:none"
         id="path333" /><path
         d="m 4719.65,1660.08 c -10.3,0 -10.31,-15.99 0,-15.99 10.29,0 10.31,15.99 0,15.99"
         style="fill:none;fill-opacity:1;fill-rule:nonzero;stroke:#000000;stroke-opacity:1;stroke-width:10.00000023;stroke-miterlimit:4;stroke-dasharray:none"
         id="path335" /><path
         d="m 4935.18,1318.28 c -27.38,37.77 -57.96,72.57 -83.49,111.79 -11.3,17.35 -22.06,35.07 -32.2,53.13 -7.57,13.46 -30.54,43.72 -32.31,58.14 -2.56,20.91 65.17,81.48 81.72,101.73 25.99,31.8 49.16,65.44 55.29,106.92 10.99,74.36 -41.35,136.29 -116.54,137.98 -72.73,1.62 -135.5,-52.52 -165.58,-115.55 -16.2,-33.95 19.92,-39.78 37.5,-28.32 0.07,-0.25 0.14,-0.5 0.21,-0.77 24.58,20.58 45.54,45.39 74.5,60.4 25.28,13.11 70.95,19.41 86.89,-12.07 19.2,-37.9 -23.31,-80.5 -45.97,-105.96 -23.98,-26.94 -49.22,-53 -72.25,-80.76 -45.53,-54.89 -7.87,-111.19 22.37,-165.1 33.78,-60.27 74.2,-124.04 124.29,-172.14 32.76,-31.45 94.43,10.81 65.57,50.58"
         style="fill:none;fill-opacity:1;fill-rule:nonzero;stroke:#000000;stroke-opacity:1;stroke-width:10.00000023;stroke-miterlimit:4;stroke-dasharray:none"
         id="path337" /><path
         d="m 5123.89,1819.52 c -27.52,-78.36 -31.88,-171.77 -40.19,-254.18 -8.87,-88.13 -14.49,-176.52 -17.41,-265.04 -1.73,-52.76 81.6,-52.96 82.11,0 0.82,85.6 4.15,171.14 10.56,256.52 6.1,81.29 23.28,166.07 21.68,247.5 5.69,26.87 -41.56,58.45 -56.75,15.2"
         style="fill:none;fill-opacity:1;fill-rule:nonzero;stroke:#000000;stroke-opacity:1;stroke-width:10.00000023;stroke-miterlimit:4;stroke-dasharray:none"
         id="path339" /><path
         d="m 5267.36,1880.68 c -80.84,-1.64 -165.71,-5.84 -245.69,-17.82 -39.09,-5.85 -25.83,-62.2 8.79,-64.95 77.38,-6.13 159.4,-3.89 236.9,-0.04 52.9,2.64 53.6,83.89 0,82.81"
         style="fill:none;fill-opacity:1;fill-rule:nonzero;stroke:#000000;stroke-opacity:1;stroke-width:10.00000023;stroke-miterlimit:4;stroke-dasharray:none"
         id="path341" /><path
         d="m 5544.56,1570.7 c 1.97,96.29 14.79,192.4 14.85,288.59 -16.9738,25.3232 -43.0669,35.5173 -53.71,7.28 -39.44,-121.85 -43.87,-259.45 -44.71,-386.54"
         style="fill:none;fill-opacity:1;fill-rule:nonzero;stroke:#000000;stroke-opacity:1;stroke-width:10.00000023;stroke-miterlimit:4;stroke-dasharray:none"
         id="path343"
         sodipodi:nodetypes="cccc" /><path
         d="m 3016.7,4416.9 c -93.81,47.94 -187.4,98.86 -257.77,179.17 -69.35,79.15 -125.08,190.68 -153.18,291.74 -1.59,5.71 -10.94,4.79 -10.59,-1.43 2.79,-49.5 29.54,-98.05 50.2,-142.2 24.33,-51.97 50.19,-102.34 85.99,-147.5 71.76,-90.54 171.65,-149.01 273.05,-200.82 13.94,-7.13 26.29,13.89 12.3,21.04"
         style="fill:none;fill-opacity:1;fill-rule:nonzero;stroke:#000000;stroke-opacity:1;stroke-width:10.00000023;stroke-miterlimit:4;stroke-dasharray:none"
         id="path461" /><path
         d="m 2428.76,3258.02 c -175.32,41.67 -352.58,72.65 -524.9,126.51 -138.85,43.41 -275.24,95.82 -385.76,190 0.91,1.43 0.92,3.49 -0.89,4.68 -7.02,4.06 -13.6,8.66 -19.84,13.71 -6.79,6.31 -13.5,12.74 -20.07,19.41 -5.87,6.94 -17.89,-2.23 -12.67,-9.78 85.46,-123.68 252.87,-182.17 388.98,-229.1 184,-63.44 377.27,-105 568.73,-138.71 15.04,-2.65 21.76,19.63 6.42,23.28"
         style="fill:none;fill-opacity:1;fill-rule:nonzero;stroke:#000000;stroke-opacity:1;stroke-width:10.00000023;stroke-miterlimit:4;stroke-dasharray:none"
         id="path465" /><path
         d="m 1610.55,1658.8 c -247.09,4.69 -481.93,109.5 -611.206,327.29 -5.321,11.63 -23.434,1.46 -17.395,-10.17 115.831,-223.1 381.781,-353.5 628.601,-341.96 15.91,0.74 16.07,24.54 0,24.84"
         style="fill:none;fill-opacity:1;fill-rule:nonzero;stroke:#000000;stroke-opacity:1;stroke-width:10.00000023;stroke-miterlimit:4;stroke-dasharray:none"
         id="path469" /><path
         d="m 5559.13,499.379 c -150.37,34.75 -286.99,95.051 -405.56,195.43 -57.64,48.793 -109.51,104.39 -155.1,164.57 -37.84,49.953 -66.41,105.391 -100.06,157.691 0.58,-0.37 1.15,-0.74 1.73,-1.1 0.52,-0.55 1.35,0.28 0.82,0.82 -6.54,8.62 -13.09,17.25 -19.63,25.87 -3.69,6.49 -14.31,2.17 -12.14,-5.12 21.07,-70.95 67.75,-137.931 111.43,-196.911 137.2883,-183.58992 367.7971,-333.1908 571.35,-367.25 16.7,-2.57 24.43,22 7.16,26"
         style="fill:none;fill-opacity:1;fill-rule:nonzero;stroke:#000000;stroke-opacity:1;stroke-width:10.00000023;stroke-miterlimit:4;stroke-dasharray:none"
         id="path473"
         sodipodi:nodetypes="ccccccccccc" /><path
         d="m 6549.13,2209.38 c -196.25,61.32 -377.2,179.88 -548.75,290.98 -168.13,108.91 -327.11,235.62 -424.19,413.21 -3.39,7.81 -14.82,2.02 -13.17,-5.55 18.93,-87.05 94.35,-163.22 156.38,-222.62 75.19,-72.01 157.5,-136.05 244.02,-193.83 91.9,-61.38 187.44,-117.85 282.66,-173.89 93.72,-55.17 190.51,-105.61 295.89,-134.3 16.8,-4.57 23.68,20.83 7.16,26"
         style="fill:none;fill-opacity:1;fill-rule:nonzero;stroke:#000000;stroke-opacity:1;stroke-width:10.00000023;stroke-miterlimit:4;stroke-dasharray:none"
         id="path477" /><path
         d="m 6597.06,3494.04 c -140.04,-35.68 -281.71,-57.62 -426.48,-57.1 -73.41,0.27 -148.06,3.51 -220.55,15.43 -64.29,10.57 -128.38,28.84 -194.02,26.6 0.01,-0.08 0.02,-0.14 0.03,-0.22 -8.03,-0.15 -10.64,-13.24 -2.02,-14.49 143.53,-20.79 279.57,-53.33 425.8,-53.71 143.31,-0.37 286.35,19.08 424.22,58.17 16.25,4.61 9.43,29.5 -6.98,25.32"
         style="fill:none;fill-opacity:1;fill-rule:nonzero;stroke:#000000;stroke-opacity:1;stroke-width:10.00000023;stroke-miterlimit:4;stroke-dasharray:none"
         id="path481" /></g></g></svg>
